<svg xmlns="http://www.w3.org/2000/svg" version="1.1" xmlns:xlink="http://www.w3.org/1999/xlink" xmlns:svgjs="http://svgjs.com/svgjs" width="1280" height="720" preserveAspectRatio="none" viewBox="0 0 1280 720">
    <g mask="url(&quot;#SvgjsMask1166&quot;)" fill="none">
        <rect width="1280" height="720" x="0" y="0" fill="url(#SvgjsLinearGradient1167)"></rect>
        <path d="M302.942,292.256C349.859,293.065,386.079,256.493,409.942,216.09C434.323,174.811,448.117,125.764,426.575,82.934C402.972,36.007,355.391,0.457,302.942,3.354C253.921,6.062,222.213,51.171,200.899,95.399C182.734,133.091,182.892,175.36,202.148,212.507C223.28,253.274,257.03,291.464,302.942,292.256" fill="rgba(28, 83, 142, 0.4)" class="triangle-float1"></path>
        <path d="M846.679,604.373C912.126,601.797,962.268,552.157,993.503,494.586C1023.087,440.057,1030.755,375.17,1000.379,321.079C969.402,265.917,909.93,231.812,846.679,233.134C785.537,234.412,735.742,275.178,703.721,327.28C669.771,382.521,648.646,449.366,678.375,506.988C710.227,568.726,777.263,607.105,846.679,604.373" fill="rgba(28, 83, 142, 0.4)" class="triangle-float2"></path>
        <path d="M219.904,835.759C262.558,833.467,300.231,812.802,324.333,777.535C352.68,736.056,376.844,684.59,353.682,640.007C329.293,593.062,272.805,576.812,219.904,576.526C166.403,576.237,110.779,592.463,83.598,638.546C56.06,685.234,63.224,745.318,94.044,789.909C121.254,829.277,172.117,838.327,219.904,835.759" fill="rgba(28, 83, 142, 0.4)" class="triangle-float1"></path>
        <path d="M864.1769011683723 182.68481249048702L1015.099832465268 46.79319477347701 879.208214748258-104.12973652341864 728.2852834513623 31.761881193591336z" fill="rgba(28, 83, 142, 0.4)" class="triangle-float3"></path>
        <path d="M-17.280656118320447 445.897831944277L137.02005832952065 481.5209587782321 172.64318516347578 327.22024433039104 18.342470715634665 291.5971174964359z" fill="rgba(28, 83, 142, 0.4)" class="triangle-float3"></path>
        <path d="M1244.841,528.793C1282.207,527.207,1315.165,506.211,1333.966,473.88C1352.878,441.36,1356.695,401.283,1337.966,368.658C1319.163,335.903,1282.604,319.268,1244.841,318.628C1205.806,317.966,1166.937,332.401,1146.081,365.404C1123.803,400.658,1119.999,446.356,1141.572,482.046C1162.522,516.705,1204.378,530.51,1244.841,528.793" fill="rgba(28, 83, 142, 0.4)" class="triangle-float2"></path>
        <path d="M628.108,391.881C690.767,394.057,751.887,362.812,782.224,307.943C811.716,254.601,801.9,188.898,768.54,137.886C738.231,91.539,683.431,69.828,628.108,72.276C577.058,74.535,534.148,105.724,507.674,149.431C480.04,195.054,467.749,250.078,491.478,297.848C517.84,350.918,568.887,389.825,628.108,391.881" fill="rgba(28, 83, 142, 0.4)" class="triangle-float3"></path>
        <path d="M1027.9970151033885 710.2914395133257L1149.3837784383516 749.7323897828176 1067.4379653728804 588.9046761783627z" fill="rgba(28, 83, 142, 0.4)" class="triangle-float3"></path>
    </g>
    <defs>
        <mask id="SvgjsMask1166">
            <rect width="1280" height="720" fill="#ffffff"></rect>
        </mask>
        <linearGradient x1="89.06%" y1="119.44%" x2="10.94%" y2="-19.44%" gradientUnits="userSpaceOnUse" id="SvgjsLinearGradient1167">
            <stop stop-color="#0e2a47" offset="0"></stop>
            <stop stop-color="#00459e" offset="1"></stop>
        </linearGradient>
        <style>
            @keyframes float1 {
                0%{transform: translate(0, 0)}
                50%{transform: translate(-10px, 0)}
                100%{transform: translate(0, 0)}
            }

            .triangle-float1 {
                animation: float1 5s infinite;
            }

            @keyframes float2 {
                0%{transform: translate(0, 0)}
                50%{transform: translate(-5px, -5px)}
                100%{transform: translate(0, 0)}
            }

            .triangle-float2 {
                animation: float2 4s infinite;
            }

            @keyframes float3 {
                0%{transform: translate(0, 0)}
                50%{transform: translate(0, -10px)}
                100%{transform: translate(0, 0)}
            }

            .triangle-float3 {
                animation: float3 6s infinite;
            }
        </style>
    </defs>
</svg>